HIERARCHY
ROOT root
{
	OFFSET 0.000000 0.000000 0.000000
	CHANNELS 6 Xposition Yposition Zposition Zrotation Yrotation Xrotation
	JOINT lhip
	{
		OFFSET 0.058581 -0.082280 -0.017664
		CHANNELS 3 Zrotation Yrotation Xrotation
		JOINT lknee
		{
			OFFSET 0.043451 -0.386469 0.008037
			CHANNELS 3 Zrotation Yrotation Xrotation
			JOINT lankle
			{
				OFFSET -0.014790 -0.426874 -0.037428
				CHANNELS 3 Zrotation Yrotation Xrotation
				JOINT ltoe
				{
					OFFSET 0.041054 -0.060286 0.122042
					CHANNELS 3 Zrotation Yrotation Xrotation
					End Site
					{
						OFFSET 0.000000 0.000000 0.000000
					}
				}
			}
		}
	}
	JOINT rhip
	{
		OFFSET -0.060310 -0.090513 -0.013543
		CHANNELS 3 Zrotation Yrotation Xrotation
		JOINT rknee
		{
			OFFSET -0.043257 -0.383688 -0.004843
			CHANNELS 3 Zrotation Yrotation Xrotation
			JOINT rankle
			{
				OFFSET 0.019056 -0.420046 -0.034562
				CHANNELS 3 Zrotation Yrotation Xrotation
				JOINT rtoe
				{
					OFFSET -0.034840 -0.062106 0.130323
					CHANNELS 3 Zrotation Yrotation Xrotation
					End Site
					{
						OFFSET 0.000000 0.000000 0.000000
					}
				}
			}
		}
	}
	JOINT lowerback
	{
		OFFSET 0.004439 0.124404 -0.038385
		CHANNELS 3 Zrotation Yrotation Xrotation
		JOINT upperback
		{
			OFFSET 0.004488 0.137956 0.026820
			CHANNELS 3 Zrotation Yrotation Xrotation
			JOINT chest
			{
				OFFSET -0.002265 0.056032 0.002855
				CHANNELS 3 Zrotation Yrotation Xrotation
				JOINT lowerneck
				{
					OFFSET -0.013390 0.211636 -0.033468
					CHANNELS 3 Zrotation Yrotation Xrotation
					JOINT upperneck
					{
						OFFSET 0.010113 0.088937 0.050410
						CHANNELS 3 Zrotation Yrotation Xrotation
						End Site
						{
							OFFSET 0.000000 0.000000 0.000000
						}
					}
				}
				JOINT lclavicle
				{
					OFFSET 0.071702 0.114000 -0.018898
					CHANNELS 3 Zrotation Yrotation Xrotation
					JOINT lshoulder
					{
						OFFSET 0.122921 0.045205 -0.019046
						CHANNELS 3 Zrotation Yrotation Xrotation
						JOINT lelbow
						{
							OFFSET 0.255332 -0.015649 -0.022946
							CHANNELS 3 Zrotation Yrotation Xrotation
							JOINT lwrist
							{
								OFFSET 0.265709 0.012698 -0.007375
								CHANNELS 3 Zrotation Yrotation Xrotation
								End Site
								{
									OFFSET 0.000000 0.000000 0.000000
								}
							}
						}
					}
				}
				JOINT rclavicle
				{
					OFFSET -0.082954 0.112472 -0.023707
					CHANNELS 3 Zrotation Yrotation Xrotation
					JOINT rshoulder
					{
						OFFSET -0.113228 0.046853 -0.008472
						CHANNELS 3 Zrotation Yrotation Xrotation
						JOINT relbow
						{
							OFFSET -0.260127 -0.014369 -0.031269
							CHANNELS 3 Zrotation Yrotation Xrotation
							JOINT rwrist
							{
								OFFSET -0.269108 0.006794 -0.006027
								CHANNELS 3 Zrotation Yrotation Xrotation
								End Site
								{
									OFFSET 0.000000 0.000000 0.000000
								}
							}
						}
					}
				}
			}
		}
	}
}
MOTION
Frames: 13
Frame Time: 0.033333
-0.325182 -0.366287 0.977395 172.823178 4.251082 108.882554 10.360016 6.789194 -27.489761 -4.052263 -2.155757 6.748379 -0.977165 5.878433 -4.793179 0.000000 -0.000000 0.000000 -1.352940 -3.977831 -32.095812 0.212694 -3.940885 15.511120 5.409823 -3.350837 -5.256915 0.000000 -0.000000 0.000000 -3.676195 7.755742 52.673251 0.768555 -2.056653 -1.454261 5.801453 0.952152 6.832843 -8.452932 4.005083 12.185143 6.864854 -4.215491 0.454391 -0.504330 -16.069735 -10.764526 -36.080080 -23.792064 0.474020 75.087952 -64.803383 -48.406758 49.755602 -4.200201 7.486813 4.650050 20.257227 -9.950170 62.181052 11.518370 20.624327 -132.416160 69.190196 -103.574356 -14.608992 14.937766 -4.245432 
-0.324960 -0.365845 0.977260 173.066820 4.202997 108.855907 10.298451 6.763318 -27.524709 -4.020898 -2.214718 6.786460 -1.032486 5.745380 -4.861796 0.000000 -0.000000 0.000000 -1.432862 -4.057320 -32.101632 0.250495 -4.123408 15.701298 5.353474 -3.335218 -5.392869 0.000000 -0.000000 0.000000 -3.577339 7.653276 52.712257 0.829557 -2.144180 -1.433985 5.773266 0.923191 6.703871 -8.388644 3.942704 12.190853 6.940744 -4.380837 0.411446 -0.601012 -16.183638 -10.730874 -36.049258 -24.035952 0.472231 75.152103 -64.949815 -48.606714 49.473677 -4.379653 7.268295 4.879272 20.227064 -9.866315 62.647350 11.211404 20.437083 -131.151650 68.761037 -103.257414 -14.972191 14.645843 -5.964739 
-0.324841 -0.365266 0.977156 173.228622 4.230295 108.777535 10.346364 6.663975 -27.423517 -3.969428 -2.194361 6.787518 -0.931941 5.683717 -4.954688 0.000000 -0.000000 0.000000 -1.396560 -4.139642 -32.029532 0.280840 -4.132159 15.865103 5.288491 -3.393547 -5.623376 0.000000 -0.000000 0.000000 -3.519584 7.588192 52.720655 0.933099 -2.246870 -1.430272 5.812679 0.815653 6.743349 -8.575701 3.830391 12.048908 6.886168 -4.335816 0.491203 -0.648078 -16.330578 -10.852991 -36.233742 -24.266108 0.270646 75.136412 -64.944110 -47.662758 49.502092 -4.671199 7.707844 5.319085 20.242134 -9.691535 61.813071 11.269928 20.251437 -132.073671 69.513581 -101.888943 -14.653439 16.478986 0.235063 
-0.324711 -0.364467 0.977369 173.327002 4.268773 108.604336 10.341833 6.871726 -27.277771 -4.116969 -2.299756 6.920646 -1.040085 5.701331 -5.072596 0.000000 -0.000000 0.000000 -1.401218 -4.113713 -31.762178 0.297590 -4.273772 15.893738 5.262320 -3.406191 -5.654000 0.000000 -0.000000 0.000000 -3.541986 7.384803 52.834386 0.852246 -2.219995 -1.463966 5.910958 0.675178 6.805789 -8.861309 3.536604 12.089807 6.831596 -4.078317 0.374054 -0.737870 -16.305194 -10.602902 -36.589751 -24.150523 0.394953 75.511505 -64.092790 -47.932659 49.676355 -5.120348 8.002310 5.199290 20.235060 -9.591879 61.055114 11.305022 20.494204 -134.589123 71.303519 -104.065538 -14.410438 17.561493 -1.038651 
-0.324218 -0.363773 0.977484 173.121254 4.254593 108.291401 10.378443 6.924950 -27.071653 -4.195637 -2.210687 7.323427 -1.007929 5.849547 -5.244162 0.000000 -0.000000 0.000000 -1.452680 -4.003831 -31.426967 0.356930 -4.274345 15.946118 5.175041 -3.434666 -5.775125 0.000000 -0.000000 0.000000 -3.706170 7.503742 52.942998 0.698288 -2.199503 -1.231104 5.813858 0.718598 6.725714 -8.729586 3.122302 12.111076 7.164306 -4.223008 0.093239 -1.046354 -16.165583 -10.430313 -36.010743 -23.905390 0.201922 75.618381 -64.402587 -48.319536 49.105641 -5.243122 7.878842 5.430663 20.381006 -9.461751 60.254319 11.232528 20.727380 -137.165734 72.185589 -106.335533 -13.365220 18.582727 -0.163134 
-0.322863 -0.362991 0.977957 172.611909 4.298637 107.822869 10.595175 6.939965 -26.726193 -4.258583 -1.932407 8.046110 -0.950423 6.077834 -5.587902 0.000000 -0.000000 0.000000 -1.269944 -4.005205 -30.930597 0.419683 -3.910117 15.958771 5.197025 -3.293478 -5.914351 0.000000 -0.000000 0.000000 -4.000157 8.077929 53.085198 0.537737 -2.176137 -0.936801 5.785437 0.800464 6.663378 -8.489372 2.643403 12.216804 7.669458 -4.540039 -0.300635 -1.042106 -16.312681 -10.322694 -35.296630 -23.622277 -0.028187 75.738467 -64.676976 -48.791044 48.828700 -5.304257 7.933729 5.286175 20.752639 -9.411039 60.045600 11.021111 20.893237 -138.468335 72.321087 -107.405519 -12.615506 19.108748 0.948494 
-0.321564 -0.362612 0.977816 172.121771 4.329500 107.529499 10.853029 6.797723 -26.829389 -4.343256 -1.508438 9.181807 -0.870303 6.391970 -6.092251 0.000000 -0.000000 0.000000 -1.166953 -3.864561 -30.759236 0.428536 -3.626564 16.158571 5.169831 -3.180974 -6.058978 0.000000 -0.000000 0.000000 -4.348410 8.702080 52.972252 0.464119 -2.229171 -0.683377 5.841861 0.767099 6.507000 -8.331696 2.486765 12.479807 7.985306 -4.788959 -0.436946 -0.830658 -16.629922 -10.105069 -35.037219 -23.423251 -0.216531 75.921579 -64.453796 -48.972645 48.815632 -5.391251 8.153935 4.997559 21.123188 -9.381236 60.119364 11.084917 20.914252 -138.577690 72.362608 -107.126325 -12.256819 19.311731 1.354016 
-0.320510 -0.362350 0.977549 171.869528 4.521199 107.218686 11.307311 6.684842 -26.936386 -4.452011 -1.170949 10.237134 -0.939589 6.553622 -6.511627 0.000000 -0.000000 0.000000 -0.967680 -3.818655 -30.543358 0.560723 -3.507971 16.375315 5.130372 -3.019507 -6.183929 0.000000 -0.000000 0.000000 -4.488816 8.976590 52.919785 0.448153 -2.268890 -0.495131 5.835575 0.801439 6.404346 -8.342528 2.521398 12.603827 8.017184 -4.960727 -0.333720 -0.610424 -16.887530 -9.937502 -35.061395 -23.211800 -0.409853 76.218000 -64.144919 -49.106651 48.483161 -5.424476 8.163706 4.680546 21.385617 -9.371357 60.454792 11.306235 20.697734 -137.276607 72.116845 -105.667916 -11.954507 18.917639 1.651180 
-0.319518 -0.361722 0.977595 171.941907 4.723584 106.849370 11.569367 6.768756 -26.948772 -4.471957 -1.152495 11.089077 -1.014078 6.548218 -6.962095 0.000000 -0.000000 0.000000 -0.711595 -3.801461 -30.223323 0.576365 -3.464859 16.671161 5.069266 -2.984220 -6.395584 0.000000 -0.000000 0.000000 -4.550483 8.974520 53.085068 0.496940 -2.243777 -0.560077 5.851697 0.821306 6.414206 -8.274471 2.586566 12.591696 7.824662 -5.163605 -0.180340 -0.694947 -16.916015 -9.825604 -35.023288 -23.132590 -0.514346 76.000395 -64.103999 -48.727293 48.579827 -5.429205 8.153210 4.719072 21.375050 -9.522939 60.860506 11.529134 20.495952 -134.196238 71.790433 -103.143751 -12.880863 18.334461 0.528973 
-0.318761 -0.361522 0.977127 172.220575 4.714323 106.780621 11.536790 6.880280 -27.098459 -4.514424 -1.419353 11.394791 -1.028600 6.516786 -7.152617 0.000000 -0.000000 0.000000 -0.746397 -3.686296 -30.303678 0.547873 -3.554514 17.116475 5.023263 -3.201116 -6.643671 0.000000 -0.000000 0.000000 -4.598511 8.851310 53.090522 0.510291 -2.247831 -0.724465 5.825997 0.791391 6.412196 -8.089773 2.519344 12.554760 7.848857 -5.522163 -0.269062 -0.700311 -16.929268 -9.679172 -34.741675 -23.042904 -0.493564 75.827237 -64.325146 -48.575567 48.811866 -5.229545 8.113953 4.797007 21.250334 -9.572958 61.411310 11.282077 20.334144 -130.430377 71.498362 -100.664494 -14.335966 16.996301 -2.547361 
-0.318053 -0.361195 0.977198 172.726599 4.616549 106.751805 11.394797 6.854243 -27.148142 -4.486929 -1.820488 11.355959 -1.034248 6.391830 -7.234371 0.000000 -0.000000 0.000000 -0.859546 -3.707113 -30.308072 0.531140 -3.808062 17.392853 4.970239 -3.445628 -6.851845 0.000000 -0.000000 0.000000 -4.476375 8.656115 53.349329 0.561047 -2.298429 -1.065029 5.822957 0.686382 6.386120 -7.907140 2.358786 12.210811 7.873051 -5.949108 -0.217621 -0.675219 -16.965868 -9.646887 -34.641553 -23.053713 -0.405199 75.155016 -64.424677 -48.049141 49.775521 -5.282546 8.051564 4.924264 21.067836 -9.664061 61.979907 10.799780 20.157746 -127.111824 70.986179 -98.665468 -16.790207 15.836090 -5.372552 
-0.317600 -0.360878 0.977096 173.332666 4.494935 106.910486 11.217791 6.825865 -27.273919 -4.480934 -2.124783 11.040969 -1.027525 6.192900 -7.088065 0.000000 -0.000000 0.000000 -1.060544 -3.775902 -30.300098 0.613481 -4.155452 17.369250 4.890444 -3.685091 -6.968299 0.000000 -0.000000 0.000000 -4.344127 8.362542 53.382224 0.675557 -2.403699 -1.249958 5.818334 0.699504 6.278709 -7.977979 2.055388 11.951974 7.998747 -6.168455 -0.296168 -0.632050 -17.126257 -9.803090 -34.647372 -23.238172 -0.157782 75.064053 -64.744216 -48.158814 49.690050 -5.250640 7.839880 5.079587 20.987295 -9.683476 62.132475 10.222302 19.894469 -126.170005 70.175162 -98.268322 -16.341175 15.598618 -5.401402 
-0.317274 -0.360982 0.976901 173.760003 4.489561 107.233410 11.261833 6.662628 -27.499909 -4.449427 -2.198601 10.682426 -0.927646 5.974584 -6.805446 0.000000 -0.000000 0.000000 -1.072037 -4.016862 -30.454666 0.796292 -4.255373 17.186372 4.870393 -3.842118 -6.902048 0.000000 -0.000000 0.000000 -4.187454 8.167104 53.141729 0.825839 -2.585964 -1.317112 5.846556 0.638940 6.221115 -8.254406 1.837024 11.486560 7.948146 -6.143849 -0.130763 -0.576166 -17.251086 -9.900875 -34.989515 -23.512515 -0.276184 74.938721 -64.729124 -47.078938 49.268080 -5.250293 8.341089 5.249808 20.949083 -9.433094 61.029963 10.203152 19.560482 -128.236699 70.688736 -97.605267 -14.876437 17.434677 0.290118 
